<?xml version="1.0" encoding="UTF-8" standalone="no"?>
<!-- Created with Inkscape (http://www.inkscape.org/) -->

<svg
   width="80.308319mm"
   height="40.172478mm"
   viewBox="0 0 80.308319 40.172478"
   version="1.1"
   id="svg1"
   xml:space="preserve"
   xmlns:xlink="http://www.w3.org/1999/xlink"
   xmlns="http://www.w3.org/2000/svg"
   xmlns:svg="http://www.w3.org/2000/svg"><defs
     id="defs1"><linearGradient
       id="linearGradient51"><stop
         style="stop-color:#004428;stop-opacity:1;"
         offset="0"
         id="stop51" /><stop
         style="stop-color:#006138;stop-opacity:1;"
         offset="1"
         id="stop52" /></linearGradient><linearGradient
       id="linearGradient49"><stop
         style="stop-color:#3a6d3a;stop-opacity:1;"
         offset="0"
         id="stop49" /><stop
         style="stop-color:#7b947b;stop-opacity:1;"
         offset="1"
         id="stop50" /></linearGradient><linearGradient
       id="linearGradient46"><stop
         style="stop-color:#051b00;stop-opacity:1;"
         offset="0"
         id="stop47" /><stop
         style="stop-color:#024400;stop-opacity:1;"
         offset="1"
         id="stop48" /></linearGradient><linearGradient
       id="linearGradient44"><stop
         style="stop-color:#00341a;stop-opacity:1;"
         offset="0"
         id="stop44" /><stop
         style="stop-color:#046a3e;stop-opacity:1;"
         offset="0.5"
         id="stop46" /><stop
         style="stop-color:#00351b;stop-opacity:1;"
         offset="1"
         id="stop45" /></linearGradient><linearGradient
       id="linearGradient41"><stop
         style="stop-color:#5b9f5b;stop-opacity:1;"
         offset="0"
         id="stop42" /><stop
         style="stop-color:#7c947c;stop-opacity:1;"
         offset="1"
         id="stop43" /></linearGradient><linearGradient
       id="linearGradient38"><stop
         style="stop-color:#00331a;stop-opacity:1;"
         offset="0"
         id="stop39" /><stop
         style="stop-color:#046a3e;stop-opacity:1"
         offset="0.37159717"
         id="stop41" /><stop
         style="stop-color:#00331a;stop-opacity:1;"
         offset="1"
         id="stop40" /></linearGradient><linearGradient
       id="linearGradient22"><stop
         style="stop-color:#024400;stop-opacity:1;"
         offset="0"
         id="stop23" /><stop
         style="stop-color:#051b00;stop-opacity:1;"
         offset="1"
         id="stop22" /></linearGradient><linearGradient
       xlink:href="#linearGradient22"
       id="linearGradient23"
       x1="145.50728"
       y1="92.988731"
       x2="145.50728"
       y2="74.499557"
       gradientUnits="userSpaceOnUse" /><linearGradient
       xlink:href="#linearGradient38"
       id="linearGradient40"
       x1="114.62054"
       y1="116.61464"
       x2="205.94185"
       y2="37.185028"
       gradientUnits="userSpaceOnUse" /><linearGradient
       xlink:href="#linearGradient41"
       id="linearGradient43"
       x1="146.64105"
       y1="74.586769"
       x2="146.64105"
       y2="95.953972"
       gradientUnits="userSpaceOnUse" /><linearGradient
       xlink:href="#linearGradient44"
       id="linearGradient45"
       x1="114.37386"
       y1="117.19227"
       x2="207.49416"
       y2="36.258545"
       gradientUnits="userSpaceOnUse" /><linearGradient
       xlink:href="#linearGradient46"
       id="linearGradient48"
       x1="117.11749"
       y1="52.023098"
       x2="187.43919"
       y2="23.242786"
       gradientUnits="userSpaceOnUse" /><linearGradient
       xlink:href="#linearGradient49"
       id="linearGradient50"
       x1="127.32823"
       y1="51.763145"
       x2="187.44521"
       y2="21.175346"
       gradientUnits="userSpaceOnUse" /><linearGradient
       xlink:href="#linearGradient51"
       id="linearGradient52"
       x1="31.050266"
       y1="176.95923"
       x2="31.050266"
       y2="156.25238"
       gradientUnits="userSpaceOnUse" /></defs><g
     id="layer1"
     transform="translate(-32.676634,-131.47892)"><path
       style="font-size:31.75px;line-height:0;font-family:Quicksand;-inkscape-font-specification:Quicksand;letter-spacing:-3.175px;fill:#4d4d4d;stroke-width:0.264583"
       d="m 41.195315,162.67506 q -0.4445,0 -0.73025,-0.28575 -0.254,-0.28575 -0.254,-0.66675 v -20.22475 h 1.9685 v 20.22475 q 0,0.381 -0.28575,0.66675 -0.28575,0.28575 -0.6985,0.28575 z m -7.5565,-20.41525 q -0.381,0 -0.66675,-0.254 -0.28575,-0.254 -0.28575,-0.66675 0,-0.381 0.28575,-0.635 0.28575,-0.254 0.66675,-0.254 h 15.113 q 0.381,0 0.66675,0.254 0.28575,0.254 0.28575,0.66675 0,0.41275 -0.28575,0.66675 -0.28575,0.22225 -0.66675,0.22225 z m 22.796527,0.635 -7.71525,19.177 q -0.127,0.3175 -0.34925,0.47625 -0.22225,0.15875 -0.508,0.15875 -0.4445,0 -0.66675,-0.22225 -0.22225,-0.254 -0.254,-0.60325 -0.03175,-0.15875 0.03175,-0.381 l 8.382,-20.5105 q 0.15875,-0.34925 0.381,-0.47625 0.254,-0.15875 0.5715,-0.15875 0.3175,0 0.53975,0.1905 0.254,0.15875 0.381,0.4445 l 8.35025,20.41525 q 0.0635,0.1905 0.0635,0.381 0,0.4445 -0.28575,0.6985 -0.28575,0.22225 -0.66675,0.22225 -0.3175,0 -0.5715,-0.15875 -0.22225,-0.1905 -0.34925,-0.47625 l -7.90575,-19.304 z m -5.87375,13.36675 0.79375,-1.87325 h 9.8425 l 0.381,1.87325 z m 16.763979,-15.8115 q 0.22225,0 0.4445,0.0952 0.254,0.0952 0.41275,0.3175 l 8.763,13.1445 -0.85725,-0.0317 8.79475,-13.11275 q 0.34925,-0.47625 0.85725,-0.41275 0.381,0 0.635,0.28575 0.28575,0.254 0.28575,0.66675 v 20.32 q 0,0.381 -0.28575,0.66675 -0.28575,0.28575 -0.6985,0.28575 -0.4445,0 -0.73025,-0.28575 -0.28575,-0.28575 -0.28575,-0.66675 v -18.38325 l 0.5715,0.0635 -8.03275,12.16025 q -0.09525,0.1905 -0.28575,0.3175 -0.1905,0.0952 -0.4445,0.0635 -0.22225,0.0317 -0.4445,-0.0635 -0.1905,-0.127 -0.3175,-0.3175 l -8.0645,-12.28725 0.60325,-0.41275 v 18.8595 q 0,0.381 -0.28575,0.66675 -0.254,0.28575 -0.66675,0.28575 -0.41275,0 -0.66675,-0.28575 -0.254,-0.28575 -0.254,-0.66675 v -20.32 q 0,-0.381 0.254,-0.66675 0.28575,-0.28575 0.6985,-0.28575 z"
       id="text6"
       aria-label="TAM" /><path
       d="m 31.902223,175.92365 q -0.02921,0.37973 -0.321304,0.64261 -0.262886,0.26289 -0.6134,0.26289 -0.408933,0 -0.671818,-0.26289 -0.233676,-0.26288 -0.233676,-0.64261 v -18.63566 q 0,-0.37972 0.262885,-0.64261 0.262886,-0.26288 0.671819,-0.26288 0.350514,0 0.613399,0.26288 0.292095,0.26289 0.292095,0.64261 z"
       id="text6-7"
       style="font-size:29.2095px;line-height:0;font-family:Quicksand;-inkscape-font-specification:Quicksand;letter-spacing:0px;fill:url(#linearGradient52);stroke-width:0.243412"
       transform="scale(1.086974,0.91998522)"
       aria-label="I" /><g
       id="g18"
       transform="matrix(0.26814885,0,0,0.26814885,57.29778,126.66471)"><g
         id="g17"
         transform="rotate(180,160.89095,92.860482)"><path
           style="opacity:1;fill:url(#linearGradient45);fill-opacity:1;stroke-width:0.264583"
           d="M 114.37386,117.4967 146.9034,97.978972 132.85064,80.022667 146.51305,71.955342 207.66858,36.302965 114.50398,53.999037 Z"
           id="path15" /><path
           style="fill:url(#linearGradient48);stroke-width:0.264583"
           d="M 114.50109,54.006069 207.66492,36.306821 175.65878,17.953431 Z"
           id="path16" /><path
           style="opacity:1;fill:url(#linearGradient43);fill-opacity:1;stroke-width:0.264583"
           d="M 146.51305,71.951274 146.9027,97.978972 132.85064,80.022667 Z"
           id="path17" /></g><g
         id="g14"
         transform="translate(1.3984769e-6)"><path
           style="opacity:1;fill:url(#linearGradient40);stroke-width:0.264583"
           d="M 114.37386,117.4967 146.9034,97.978972 132.85064,80.022667 146.51305,71.955342 207.66858,36.302965 114.50398,53.999037 Z"
           id="path12" /><path
           style="fill:url(#linearGradient50);fill-opacity:1;stroke-width:0.264583"
           d="M 114.50109,53.99836 207.67263,36.302967 175.65878,17.953431 Z"
           id="path13" /><path
           style="opacity:1;fill:url(#linearGradient23);fill-opacity:1;stroke-width:0.264583"
           d="M 146.51305,71.951274 146.9027,97.978972 132.85064,80.022667 Z"
           id="path14" /></g></g></g></svg>
